# xmcd CD database file
#
# Track frame offsets:
#	150
#	13122
#	26472
#	43462
#	61017
#	83977
#	96690
#	113480
#	133170
#	142940
#
# Disc length: 2647 seconds
#
# Revision: 0
# Processed by: cddbd v1.4PL0 Copyright (c) Steve Scherf et al.
# Submitted via: CDex 1.51
#
DISCID=860a550a
DTITLE=Tom Mega - Songs and Prayers
DYEAR=1994
DGENRE=Jazz
TTITLE0=down in the boondocks
TTITLE1=diamnonds in the mine
TTITLE2=it´s all over now
TTITLE3=fear
TTITLE4=duet
TTITLE5=the last word
TTITLE6=famous blue raincoat
TTITLE7=ahard rain is gonna fall
TTITLE8=lady came from baltimore
TTITLE9=streets of lima
EXTD=YEAR: 1994
EXTT0=
EXTT1=
EXTT2=
EXTT3=
EXTT4=
EXTT5=
EXTT6=
EXTT7=
EXTT8=
EXTT9=
PLAYORDER=
